<svg width="400" height="75" viewBox="0 0 400 75" fill="none" xmlns="http://www.w3.org/2000/svg">
<path d="M214.139 55.672C212.315 55.672 210.763 55.128 209.483 54.04C208.267 53.016 207.659 51.592 207.659 49.768C207.659 47.976 208.267 46.584 209.483 45.592C210.699 44.536 212.251 44.008 214.139 44.008C216.155 44.008 217.787 44.536 219.035 45.592C220.283 46.648 220.907 48.04 220.907 49.768C220.907 51.528 220.267 52.952 218.987 54.04C217.707 55.096 216.107 55.624 214.187 55.624L214.139 55.672ZM236.593 55.432C233.393 55.432 230.561 54.584 228.097 52.888L227.329 55H222.961V45.736H228.193C228.385 46.92 228.929 47.992 229.825 48.952C230.753 49.88 231.809 50.344 232.993 50.344C233.441 50.344 233.825 50.216 234.145 49.96C234.497 49.704 234.673 49.288 234.673 48.712C234.673 48.136 234.337 47.624 233.665 47.176C233.025 46.696 232.033 46.136 230.689 45.496C229.089 44.696 227.777 43.976 226.753 43.336C225.729 42.664 224.833 41.8 224.065 40.744C223.329 39.656 222.961 38.36 222.961 36.856C222.961 35.288 223.457 33.944 224.449 32.824C225.473 31.704 226.817 30.856 228.481 30.28C230.145 29.704 231.953 29.416 233.905 29.416C236.465 29.416 238.833 30.088 241.009 31.432L241.585 29.896H245.473V37.384H240.961C240.577 36.36 240.017 35.56 239.281 34.984C238.545 34.408 237.681 34.12 236.689 34.12C236.145 34.12 235.713 34.2 235.393 34.36C235.105 34.52 234.961 34.808 234.961 35.224C234.993 35.736 235.297 36.168 235.873 36.52C236.449 36.872 237.409 37.336 238.753 37.912C240.417 38.616 241.793 39.288 242.881 39.928C243.969 40.568 244.913 41.48 245.713 42.664C246.545 43.816 246.961 45.256 246.961 46.984C246.961 48.808 246.481 50.36 245.521 51.64C244.561 52.888 243.297 53.832 241.729 54.472C240.161 55.112 238.449 55.432 236.593 55.432ZM262.806 55.432C259.766 55.432 257.494 54.664 255.99 53.128C254.518 51.56 253.782 49.192 253.782 46.024V36.76H250.038V29.896H253.782V24.52L265.014 22.024V29.896H269.526V36.76H265.014V45.208C265.014 45.912 265.27 46.504 265.782 46.984C266.326 47.432 266.998 47.656 267.798 47.656C268.374 47.656 268.95 47.608 269.526 47.512V54.04C267.478 54.968 265.238 55.432 262.806 55.432ZM287.613 55.432C284.797 55.432 282.317 54.92 280.173 53.896C278.029 52.84 276.365 51.32 275.181 49.336C273.997 47.32 273.405 44.936 273.405 42.184C273.405 39.464 273.997 37.144 275.181 35.224C276.365 33.304 278.029 31.864 280.173 30.904C282.317 29.912 284.797 29.416 287.613 29.416C291.933 29.416 295.389 30.536 297.981 32.776C300.573 34.984 301.869 38.12 301.869 42.184C301.869 44.936 301.277 47.32 300.093 49.336C298.909 51.32 297.245 52.84 295.101 53.896C292.957 54.92 290.461 55.432 287.613 55.432ZM287.613 48.568C288.637 48.568 289.389 48.072 289.869 47.08C290.381 46.056 290.637 44.424 290.637 42.184C290.637 40.104 290.397 38.6 289.917 37.672C289.437 36.744 288.669 36.28 287.613 36.28C286.589 36.28 285.837 36.744 285.357 37.672C284.877 38.6 284.637 40.104 284.637 42.184C284.637 44.424 284.877 46.056 285.357 47.08C285.869 48.072 286.621 48.568 287.613 48.568ZM305.133 47.944H308.157V37.144H305.133V30.808L319.389 29.416V33.496C320.125 32.312 321.357 31.336 323.085 30.568C324.813 29.8 326.333 29.416 327.645 29.416V39.352C325.821 38.744 324.317 38.44 323.133 38.44C321.629 38.44 320.621 38.872 320.109 39.736C319.629 40.6 319.389 41.736 319.389 43.144V47.944H323.133V55H305.133V47.944ZM344.514 55.432C341.602 55.432 339.074 54.904 336.93 53.848C334.786 52.76 333.138 51.224 331.986 49.24C330.834 47.256 330.258 44.936 330.258 42.28C330.258 39.656 330.818 37.384 331.938 35.464C333.058 33.512 334.626 32.024 336.642 31C338.69 29.944 341.074 29.416 343.794 29.416C346.322 29.416 348.546 29.912 350.466 30.904C352.386 31.896 353.874 33.304 354.93 35.128C355.986 36.952 356.514 39.08 356.514 41.512C356.514 42.344 356.386 43.144 356.13 43.912H341.538C341.538 45.384 342.082 46.568 343.17 47.464C344.29 48.328 345.634 48.76 347.202 48.76C348.386 48.76 349.682 48.552 351.09 48.136C352.53 47.72 353.97 47.08 355.41 46.216L355.794 46.36V52.648C354.194 53.576 352.546 54.28 350.85 54.76C349.154 55.208 347.042 55.432 344.514 55.432ZM347.538 39.784V39.304C347.538 38.184 347.282 37.224 346.77 36.424C346.258 35.624 345.506 35.224 344.514 35.224C343.682 35.224 342.978 35.64 342.402 36.472C341.826 37.272 341.538 38.152 341.538 39.112V39.784H347.538ZM389.494 40.216C388.502 40.216 387.542 40.024 386.614 39.64C385.718 39.224 384.614 38.616 383.302 37.816C381.926 37.016 380.79 36.424 379.894 36.04C379.03 35.656 378.118 35.464 377.158 35.464C376.678 35.464 376.118 35.784 375.478 36.424C374.838 37.064 373.974 38.04 372.886 39.352L372.214 40.12L369.142 38.104C369.398 37.688 369.686 37.176 370.006 36.568C370.326 35.96 370.55 35.528 370.678 35.272C371.35 33.864 371.942 32.728 372.454 31.864C372.998 31 373.686 30.264 374.518 29.656C375.35 29.048 376.326 28.744 377.446 28.744C378.598 28.744 379.654 28.952 380.614 29.368C381.606 29.784 382.822 30.408 384.262 31.24C385.446 31.944 386.454 32.488 387.286 32.872C388.118 33.224 388.966 33.4 389.83 33.4C390.31 33.4 390.918 33.032 391.654 32.296C392.422 31.528 393.446 30.376 394.726 28.84L397.75 30.856C397.174 31.72 396.518 32.92 395.782 34.456C395.11 35.8 394.534 36.856 394.054 37.624C393.606 38.36 393.014 38.984 392.278 39.496C391.542 40.008 390.63 40.264 389.542 40.264L389.494 40.216Z" fill="#22202B"/>
<path d="M20.928 40.216C19.936 40.216 18.976 40.024 18.048 39.64C17.152 39.224 16.048 38.616 14.736 37.816C13.36 37.016 12.224 36.424 11.328 36.04C10.464 35.656 9.552 35.464 8.592 35.464C8.112 35.464 7.552 35.784 6.912 36.424C6.272 37.064 5.408 38.04 4.32 39.352L3.648 40.12L0.576 38.104C0.832 37.688 1.12 37.176 1.44 36.568C1.76 35.96 1.984 35.528 2.112 35.272C2.784 33.864 3.376 32.728 3.888 31.864C4.432 31 5.12 30.264 5.952 29.656C6.784 29.048 7.76 28.744 8.88 28.744C10.032 28.744 11.088 28.952 12.048 29.368C13.04 29.784 14.256 30.408 15.696 31.24C16.88 31.944 17.888 32.488 18.72 32.872C19.552 33.224 20.4 33.4 21.264 33.4C21.744 33.4 22.352 33.032 23.088 32.296C23.856 31.528 24.88 30.376 26.16 28.84L29.184 30.856C28.608 31.72 27.952 32.92 27.216 34.456C26.544 35.8 25.968 36.856 25.488 37.624C25.04 38.36 24.448 38.984 23.712 39.496C22.976 40.008 22.064 40.264 20.976 40.264L20.928 40.216ZM55.0163 55.72C53.5443 55.72 52.2323 55.448 51.0803 54.904C49.9603 54.328 49.0323 53.592 48.2963 52.696L47.4323 55.288H41.1443V40.168H47.9123C47.9123 42.44 48.1203 44.104 48.5363 45.16C48.9523 46.216 49.8003 46.744 51.0803 46.744C52.1683 46.744 53.0323 46.232 53.6723 45.208C54.3443 44.184 54.6803 42.984 54.6803 41.608V25.96H50.1683V17.656H70.4243V25.96H66.6803V43.864C66.6803 47.48 65.6403 50.36 63.5603 52.504C61.4803 54.648 58.6323 55.72 55.0163 55.72ZM86.8388 55.432C83.6388 55.432 80.8068 54.584 78.3428 52.888L77.5748 55H73.2068V45.736H78.4388C78.6308 46.92 79.1748 47.992 80.0708 48.952C80.9988 49.88 82.0548 50.344 83.2388 50.344C83.6868 50.344 84.0708 50.216 84.3907 49.96C84.7428 49.704 84.9188 49.288 84.9188 48.712C84.9188 48.136 84.5828 47.624 83.9108 47.176C83.2708 46.696 82.2788 46.136 80.9348 45.496C79.3348 44.696 78.0228 43.976 76.9988 43.336C75.9748 42.664 75.0788 41.8 74.3108 40.744C73.5748 39.656 73.2068 38.36 73.2068 36.856C73.2068 35.288 73.7028 33.944 74.6948 32.824C75.7188 31.704 77.0628 30.856 78.7268 30.28C80.3908 29.704 82.1988 29.416 84.1508 29.416C86.7108 29.416 89.0788 30.088 91.2548 31.432L91.8308 29.896H95.7188V37.384H91.2068C90.8228 36.36 90.2628 35.56 89.5268 34.984C88.7908 34.408 87.9268 34.12 86.9348 34.12C86.3908 34.12 85.9588 34.2 85.6388 34.36C85.3508 34.52 85.2068 34.808 85.2068 35.224C85.2388 35.736 85.5428 36.168 86.1188 36.52C86.6948 36.872 87.6548 37.336 88.9988 37.912C90.6628 38.616 92.0388 39.288 93.1268 39.928C94.2148 40.568 95.1588 41.48 95.9587 42.664C96.7908 43.816 97.2068 45.256 97.2068 46.984C97.2068 48.808 96.7268 50.36 95.7668 51.64C94.8068 52.888 93.5428 53.832 91.9748 54.472C90.4068 55.112 88.6948 55.432 86.8388 55.432ZM115.5 55.432C112.684 55.432 110.204 54.92 108.06 53.896C105.916 52.84 104.252 51.32 103.068 49.336C101.884 47.32 101.292 44.936 101.292 42.184C101.292 39.464 101.884 37.144 103.068 35.224C104.252 33.304 105.916 31.864 108.06 30.904C110.204 29.912 112.684 29.416 115.5 29.416C119.82 29.416 123.276 30.536 125.868 32.776C128.46 34.984 129.756 38.12 129.756 42.184C129.756 44.936 129.164 47.32 127.98 49.336C126.796 51.32 125.132 52.84 122.988 53.896C120.844 54.92 118.348 55.432 115.5 55.432ZM115.5 48.568C116.524 48.568 117.276 48.072 117.756 47.08C118.268 46.056 118.524 44.424 118.524 42.184C118.524 40.104 118.284 38.6 117.804 37.672C117.324 36.744 116.556 36.28 115.5 36.28C114.476 36.28 113.724 36.744 113.244 37.672C112.764 38.6 112.524 40.104 112.524 42.184C112.524 44.424 112.764 46.056 113.244 47.08C113.756 48.072 114.508 48.568 115.5 48.568ZM167.915 48.232V55H153.419V39.016C153.419 38.344 153.195 37.752 152.747 37.24C152.331 36.728 151.819 36.472 151.211 36.472C150.059 36.472 149.323 37.048 149.003 38.2C148.715 39.32 148.571 40.952 148.571 43.096V48.232H148.619V55H133.979V48.232H137.387V37.144H133.979V30.808L148.571 29.416V32.92C149.659 31.64 150.891 30.744 152.267 30.232C153.643 29.688 155.195 29.416 156.923 29.416C162.075 29.416 164.651 32.632 164.651 39.064V48.232H167.915ZM204.947 48.232V55H190.451V39.016C190.451 38.344 190.227 37.752 189.779 37.24C189.363 36.728 188.851 36.472 188.243 36.472C187.091 36.472 186.355 37.048 186.035 38.2C185.747 39.32 185.603 40.952 185.603 43.096V48.232H185.651V55H171.011V48.232H174.419V37.144H171.011V30.808L185.603 29.416V32.92C186.691 31.64 187.923 30.744 189.299 30.232C190.675 29.688 192.227 29.416 193.955 29.416C199.107 29.416 201.683 32.632 201.683 39.064V48.232H204.947Z" fill="#4F89DF"/>
</svg>
