<svg width="420" height="75" viewBox="0 0 420 75" fill="none" xmlns="http://www.w3.org/2000/svg">
<path d="M212.124 52.6719V51.9688C212.124 51.7344 212.132 51.3672 212.147 50.8672C212.163 50.3516 212.171 49.9375 212.171 49.625V48.4062C212.171 44.5938 212.421 42.6875 212.921 42.6875H222.53C224.03 42.6875 224.78 42.9062 224.78 43.3438C224.843 46.3438 224.874 48.6406 224.874 50.2344V51.0312C224.874 51.1406 224.882 51.3125 224.897 51.5469C224.913 51.7656 224.921 51.9375 224.921 52.0625C224.921 52.9375 224.749 53.375 224.405 53.375H212.874L212.124 52.6719ZM247.889 29.8438C247.468 29.8438 247.124 29.7812 246.858 29.6562C246.593 29.5312 246.382 29.375 246.225 29.1875C246.069 29 245.889 28.8125 245.686 28.625C245.499 28.4375 245.194 28.2812 244.772 28.1562C244.35 28.0312 243.811 27.9688 243.155 27.9688C242.952 27.9688 242.702 27.9922 242.405 28.0391C242.124 28.0703 241.811 28.1719 241.468 28.3438C241.124 28.5156 240.952 28.7344 240.952 29C240.952 29.2969 241.093 29.5547 241.374 29.7734C241.671 29.9766 241.999 30.125 242.358 30.2188C242.733 30.2969 243.147 30.3984 243.6 30.5234C244.069 30.6328 244.397 30.7344 244.585 30.8281L248.03 31.6719C249.046 31.9531 249.96 32.25 250.772 32.5625C251.585 32.875 252.444 33.3047 253.35 33.8516C254.272 34.3828 255.038 34.9766 255.647 35.6328C256.257 36.2891 256.764 37.1172 257.171 38.1172C257.577 39.1016 257.78 40.1875 257.78 41.375C257.78 42.8125 257.593 44.0938 257.218 45.2188V45.1719C256.889 46.1719 256.428 47.0703 255.835 47.8672C255.241 48.6484 254.538 49.3047 253.725 49.8359C252.913 50.3516 252.093 50.7891 251.264 51.1484C250.436 51.4922 249.475 51.7734 248.382 51.9922C247.303 52.1953 246.335 52.3516 245.475 52.4609C244.632 52.5547 243.655 52.6406 242.546 52.7188C237.624 52.4688 234.327 51.6875 232.655 50.375V50.0938C231.233 49.0312 230.178 47.875 229.491 46.625C228.819 45.375 228.421 43.9688 228.296 42.4062C228.296 42.0312 228.468 41.8438 228.811 41.8438C228.905 41.8438 229.046 41.8516 229.233 41.8672C229.421 41.8828 229.561 41.8906 229.655 41.8906H232.046C232.264 41.8594 232.577 41.8438 232.983 41.8438H233.593C233.718 41.8438 233.827 41.8594 233.921 41.8906C234.827 41.8594 236.374 41.8438 238.561 41.8438H239.639C239.952 41.8438 240.194 41.9375 240.366 42.125C240.538 42.3125 240.671 42.5469 240.764 42.8281C240.874 43.0938 240.991 43.3672 241.116 43.6484C241.257 43.9141 241.499 44.1406 241.843 44.3281C242.186 44.5156 242.639 44.6094 243.202 44.6094C243.811 44.6094 244.358 44.4531 244.843 44.1406C245.343 43.8125 245.593 43.3438 245.593 42.7344C245.593 42.4531 245.46 42.1875 245.194 41.9375C244.928 41.6875 244.53 41.4609 243.999 41.2578C243.468 41.0547 242.991 40.8906 242.569 40.7656C242.163 40.6406 241.608 40.4922 240.905 40.3203C240.202 40.1484 239.749 40.0312 239.546 39.9688H238.139C234.749 38.9688 232.303 37.7031 230.803 36.1719C229.319 34.625 228.577 32.6719 228.577 30.3125C228.577 28.75 228.866 27.3438 229.444 26.0938C230.038 24.8438 230.811 23.8203 231.764 23.0234C232.733 22.2266 233.866 21.5625 235.163 21.0312C236.46 20.4844 237.78 20.1016 239.124 19.8828C240.468 19.6484 241.858 19.5312 243.296 19.5312C245.843 19.5312 248.202 19.9609 250.374 20.8203C252.561 21.6641 254.218 22.7656 255.343 24.125C255.749 24.5312 256.077 25.0469 256.327 25.6719C256.577 26.2969 256.733 26.7969 256.796 27.1719C256.874 27.5312 256.968 28.1406 257.077 29L256.421 29.9375H252.436C251.999 29.9375 251.272 29.9219 250.257 29.8906C249.241 29.8594 248.452 29.8438 247.889 29.8438ZM258.155 29.2812V20.8438H285.436C285.686 20.8906 285.843 20.9922 285.905 21.1484C285.968 21.2891 285.999 21.5 285.999 21.7812V29.2812C285.968 29.6562 285.749 29.8438 285.343 29.8438H278.686V51.4062C278.686 51.4219 278.678 51.4609 278.663 51.5234C278.647 51.5859 278.639 51.625 278.639 51.6406C278.639 51.6562 278.632 51.6875 278.616 51.7344C278.6 51.7812 278.585 51.8125 278.569 51.8281C278.553 51.8438 278.538 51.875 278.522 51.9219C278.507 51.9531 278.483 51.9766 278.452 51.9922C278.436 51.9922 278.405 52.0078 278.358 52.0391C278.327 52.0547 278.288 52.0703 278.241 52.0859C278.21 52.1016 278.163 52.1172 278.1 52.1328C278.053 52.1328 277.999 52.1406 277.936 52.1562H276.436C274.436 52.1562 273.436 52.0938 273.436 51.9688C273.311 51.9688 273.124 51.9766 272.874 51.9922C272.624 52.0078 272.436 52.0156 272.311 52.0156H270.436C270.077 52.0156 269.561 52.0234 268.889 52.0391C268.233 52.0547 267.718 52.0625 267.343 52.0625H266.03L265.093 51.4062V46.3438C265.108 45.4375 265.171 43.5 265.28 40.5312C265.405 37.5625 265.468 35.2188 265.468 33.5V32.8906C265.468 32.7656 265.475 32.5703 265.491 32.3047C265.507 32.0391 265.514 31.8438 265.514 31.7188C265.514 31.5781 265.507 31.2969 265.491 30.875C265.475 30.4375 265.468 30.1562 265.468 30.0312H259.608C259.264 30.0312 258.936 29.9766 258.624 29.8672C258.311 29.7422 258.155 29.5469 258.155 29.2812ZM286.28 36.0312L286.233 35.5156C286.53 32.9688 286.811 31.1953 287.077 30.1953C287.686 27.8516 288.78 25.8906 290.358 24.3125L290.921 23.75C291.671 22.875 292.811 22.125 294.343 21.5H295.233C296.764 20.8594 299.28 20.2656 302.78 19.7188C303.655 19.7188 304.569 19.7891 305.522 19.9297C306.491 20.0547 307.561 20.2734 308.733 20.5859C309.905 20.8828 311.03 21.3672 312.108 22.0391C313.202 22.6953 314.108 23.4844 314.827 24.4062V25.0625C317.389 28.2656 318.671 31.8594 318.671 35.8438C318.671 40.3281 317.639 43.9844 315.577 46.8125L314.639 47.9844C313.921 48.875 313.022 49.6406 311.944 50.2812C310.882 50.9219 309.749 51.4141 308.546 51.7578C307.343 52.0859 306.186 52.3203 305.077 52.4609C303.983 52.6016 302.889 52.6719 301.796 52.6719C300.186 52.6719 298.647 52.4844 297.178 52.1094C295.725 51.7188 294.358 51.1172 293.077 50.3047C291.811 49.4922 290.694 48.4922 289.725 47.3047C288.757 46.1172 287.968 44.6875 287.358 43.0156C286.764 41.3281 286.405 39.4688 286.28 37.4375V36.0312ZM299.171 36.2188C299.171 41.7188 300.218 44.4688 302.311 44.4688C302.889 44.4688 303.389 44.3594 303.811 44.1406C304.249 43.9219 304.6 43.5859 304.866 43.1328C305.132 42.6797 305.35 42.2188 305.522 41.75C305.694 41.2812 305.811 40.6953 305.874 39.9922C305.952 39.2891 305.999 38.6719 306.014 38.1406C306.046 37.6094 306.061 36.9688 306.061 36.2188V35.375C306.061 34.5625 306.014 33.7812 305.921 33.0312C305.827 32.2812 305.663 31.5312 305.428 30.7812C305.21 30.0156 304.866 29.4062 304.397 28.9531C303.928 28.4844 303.358 28.25 302.686 28.25C300.343 28.25 299.171 30.5625 299.171 35.1875V36.2188ZM322.046 20.75H326.405C327.749 20.75 329.897 20.7188 332.85 20.6562C335.803 20.5938 338.014 20.5625 339.483 20.5625C340.749 20.5625 341.928 20.6328 343.022 20.7734C344.132 20.9141 345.218 21.1719 346.28 21.5469C347.358 21.9219 348.272 22.3984 349.022 22.9766C349.788 23.5547 350.405 24.3203 350.874 25.2734C351.343 26.2109 351.577 27.2969 351.577 28.5312C351.577 30.2344 351.178 31.6875 350.382 32.8906C349.585 34.0938 348.358 35.1094 346.702 35.9375C347.358 36.2188 347.928 36.5859 348.413 37.0391C348.897 37.4922 349.264 37.8828 349.514 38.2109C349.78 38.5391 350.03 39.0938 350.264 39.875C350.514 40.6406 350.663 41.1484 350.71 41.3984C350.757 41.6328 350.858 42.2266 351.014 43.1797C351.061 43.3984 351.093 43.5625 351.108 43.6719C351.171 44.2969 351.436 45.4453 351.905 47.1172C352.374 48.7734 352.608 50.0469 352.608 50.9375C352.608 51.5 352.436 51.7812 352.093 51.7812C351.155 51.7812 349.733 51.7891 347.827 51.8047C345.936 51.8203 344.53 51.8281 343.608 51.8281C343.233 51.7969 342.671 51.7812 341.921 51.7812H340.327C340.014 51.6875 339.71 51.2031 339.413 50.3281C339.116 49.4531 338.905 48.4688 338.78 47.375L338.264 43.2031C338.171 42.8594 338.093 42.6172 338.03 42.4766C337.983 42.3203 337.889 42.1406 337.749 41.9375C337.608 41.7188 337.413 41.5703 337.163 41.4922C336.928 41.4141 336.624 41.375 336.249 41.375H335.171V50.75C335.171 50.7969 335.171 50.875 335.171 50.9844C335.171 51.0781 335.171 51.1484 335.171 51.1953C335.171 51.2266 335.171 51.2812 335.171 51.3594C335.171 51.4375 335.163 51.5 335.147 51.5469C335.132 51.5781 335.116 51.625 335.1 51.6875C335.085 51.75 335.061 51.7969 335.03 51.8281C335.014 51.8438 334.983 51.875 334.936 51.9219C334.905 51.9531 334.858 51.9766 334.796 51.9922C334.749 52.0078 334.686 52.0234 334.608 52.0391C334.546 52.0547 334.468 52.0625 334.374 52.0625H322.046V20.75ZM335.311 33.125C335.343 33.1562 335.389 33.2266 335.452 33.3359C335.514 33.4297 335.577 33.5078 335.639 33.5703C335.702 33.6328 335.764 33.6719 335.827 33.6875C336.296 33.6875 336.764 33.6406 337.233 33.5469C337.702 33.4375 338.178 33.2656 338.663 33.0312C339.163 32.7969 339.561 32.4375 339.858 31.9531C340.171 31.4688 340.327 30.8906 340.327 30.2188C340.327 28.5938 338.764 27.7812 335.639 27.7812C335.327 27.8594 335.171 27.9844 335.171 28.1562V29.0469C335.171 29.5 335.194 30.1797 335.241 31.0859C335.288 31.9922 335.311 32.6719 335.311 33.125ZM354.718 22.7188C354.718 21.7812 354.757 21.2344 354.835 21.0781C354.975 20.8594 355.202 20.75 355.514 20.75H356.077C356.327 20.75 356.499 20.7656 356.593 20.7969H357.811C359.389 20.7969 361.772 20.7578 364.96 20.6797C368.163 20.6016 370.561 20.5625 372.155 20.5625H378.389C378.796 20.6094 378.999 20.8125 378.999 21.1719V29C378.983 29.0938 378.952 29.1797 378.905 29.2578C378.874 29.3203 378.843 29.3672 378.811 29.3984C378.796 29.4141 378.725 29.4688 378.6 29.5625C378.475 29.6406 378.389 29.7031 378.343 29.75H367.468V32.6562H368.499C369.405 32.6562 370.788 32.625 372.647 32.5625C374.507 32.5 375.936 32.4688 376.936 32.4688C377.374 32.4688 377.671 32.5547 377.827 32.7266C377.983 32.8984 378.061 33.1406 378.061 33.4531C378.061 33.5312 378.046 33.6641 378.014 33.8516C377.983 34.0391 377.968 34.1719 377.968 34.25V35.1406C377.968 35.2031 377.975 35.3359 377.991 35.5391C378.007 35.7266 378.014 35.8906 378.014 36.0312V36.6875C378.014 37.0312 378.03 37.375 378.061 37.7188C378.093 38.0625 378.108 38.3594 378.108 38.6094V39.2188C378.03 39.4062 377.968 39.5312 377.921 39.5938C377.874 39.6562 377.796 39.6875 377.686 39.6875V39.6406C377.108 39.6406 376.108 39.6797 374.686 39.7578C373.28 39.8359 372.155 39.875 371.311 39.875H367.561V42.875C367.686 42.875 367.874 42.8828 368.124 42.8984C368.374 42.9141 368.561 42.9219 368.686 42.9219C369.389 42.9219 370.428 42.8984 371.803 42.8516C373.178 42.8047 374.171 42.7812 374.78 42.7812H377.78C378.593 42.7812 379.108 42.875 379.327 43.0625C379.405 43.1562 379.468 43.25 379.514 43.3438V50.8438C379.514 51.1719 379.452 51.4219 379.327 51.5938C379.202 51.7656 378.968 51.8594 378.624 51.875H355.421L354.718 51.2656V22.7188ZM414.483 59.1406C414.483 59.3906 414.428 59.6016 414.319 59.7734C414.21 59.9453 414.046 60.0781 413.827 60.1719C413.624 60.2656 413.405 60.3359 413.171 60.3828C412.952 60.4453 412.678 60.4766 412.35 60.4766C412.022 60.4922 411.725 60.5 411.46 60.5C411.21 60.5 410.905 60.4922 410.546 60.4766C410.186 60.4609 409.905 60.4531 409.702 60.4531H409.139C408.436 60.4375 407.382 60.4297 405.975 60.4297C404.585 60.4297 403.546 60.4219 402.858 60.4062H396.671C396.483 60.3594 396.327 60.1797 396.202 59.8672C396.077 59.5547 395.991 59.0703 395.944 58.4141C395.897 57.7578 395.866 57.2266 395.85 56.8203C395.85 56.4141 395.85 55.7656 395.85 54.875C395.866 54 395.874 53.5 395.874 53.375C395.874 52.5938 395.944 52.1016 396.085 51.8984C396.241 51.6953 396.53 51.5938 396.952 51.5938H403.608V49.3906C403.608 44.4844 403.514 36.875 403.327 26.5625H400.421C399.983 26.5625 399.327 26.5781 398.452 26.6094C397.577 26.6406 396.921 26.6562 396.483 26.6562C396.233 26.4062 395.968 26.0938 395.686 25.7188V24.5938C395.686 24.0469 395.694 23.2656 395.71 22.25C395.725 21.2344 395.733 20.4531 395.733 19.9062C395.733 19.7969 395.725 19.6328 395.71 19.4141C395.694 19.1953 395.686 19.0312 395.686 18.9219C395.686 18.0625 395.889 17.4844 396.296 17.1875H396.905C397.53 17.1875 398.475 17.2031 399.741 17.2344C401.007 17.2656 401.952 17.2812 402.577 17.2812C403.28 17.2812 404.343 17.2656 405.764 17.2344C407.186 17.2031 408.249 17.1875 408.952 17.1875C409.577 17.1875 410.514 17.2344 411.764 17.3281C413.014 17.4219 413.952 17.4688 414.577 17.4688C414.639 17.4688 414.764 17.4375 414.952 17.375C414.952 17.8438 414.968 18.1875 414.999 18.4062V19.5312C414.999 20.0312 414.991 20.75 414.975 21.6875C414.96 22.625 414.952 23.3438 414.952 23.8438V24.5469C414.968 28.3125 414.889 33.8438 414.718 41.1406C414.561 48.4375 414.483 53.8438 414.483 57.3594V59.1406Z" fill="#22202B"/>
<path d="M3.75 54.4531V53.8438C3.75 53.5781 3.75 52.4219 3.75 50.375C3.75 48.3125 3.75 47.0781 3.75 46.6719C3.75 46.25 3.75 45.1094 3.75 43.25C3.75 41.3906 3.75 40.1562 3.75 39.5469C3.76562 38.9219 3.78125 37.7812 3.79688 36.125C3.8125 34.4688 3.82812 33.2344 3.84375 32.4219C3.85938 31.5938 3.875 30.4531 3.89062 29C3.92188 27.5312 3.95312 26.2891 3.98438 25.2734C4.03125 24.2578 4.07031 23.1172 4.10156 21.8516C4.14844 20.5859 4.20312 19.375 4.26562 18.2188C4.26562 17.8125 4.67188 17.6094 5.48438 17.6094H20.0156C21.2344 17.6094 22.0312 17.8438 22.4062 18.3125C22.7812 18.7656 22.9688 19.6406 22.9688 20.9375C22.9688 24.375 22.7969 26.0938 22.4531 26.0938C22.2656 26.0938 21.9219 26.1016 21.4219 26.1172C20.9219 26.1328 20.5469 26.1406 20.2969 26.1406C18.875 26.1406 17.2031 26.0625 15.2812 25.9062V51.5C15.9688 51.5 16.9766 51.4844 18.3047 51.4531C19.6484 51.4219 20.6719 51.4062 21.375 51.4062H22.2656C22.7969 51.4844 23.0625 52.7031 23.0625 55.0625V56.8906C23.0625 57.2344 23.0469 57.4844 23.0156 57.6406C23.0156 57.7344 23.0234 57.9219 23.0391 58.2031C23.0547 58.4844 23.0625 58.7031 23.0625 58.8594C23.0625 59.1562 23.0469 59.3906 23.0156 59.5625C22.9844 59.7344 22.8984 59.9062 22.7578 60.0781C22.6172 60.2656 22.4062 60.3906 22.125 60.4531C20.2031 60.4531 17.3125 60.4844 13.4531 60.5469C9.59375 60.6094 6.70312 60.6406 4.78125 60.6406L3.75 59.4688C3.75 59.0312 3.73438 58.6875 3.70312 58.4375V56.7969C3.70312 56.5469 3.71094 56.1562 3.72656 55.625C3.74219 55.1094 3.75 54.7188 3.75 54.4531ZM53.2969 54.3125C51.5625 54.3125 49.9766 54.1953 48.5391 53.9609C47.1172 53.7422 45.7422 53.3516 44.4141 52.7891C43.1016 52.2109 41.9922 51.4688 41.0859 50.5625C40.1797 49.6562 39.4531 48.4766 38.9062 47.0234C38.375 45.5703 38.1094 43.8906 38.1094 41.9844C38.1094 41.1406 38.3594 40.7188 38.8594 40.7188H49.5469C50.0312 40.7188 50.3906 40.8359 50.625 41.0703C50.8594 41.3047 51 41.5938 51.0469 41.9375C51.0938 42.2812 51.1328 42.625 51.1641 42.9688C51.2109 43.3125 51.3281 43.6016 51.5156 43.8359C51.7188 44.0703 52.0312 44.1875 52.4531 44.1875C52.8438 44.1875 53.1562 44.0859 53.3906 43.8828C53.6406 43.6641 53.8125 43.3438 53.9062 42.9219C54.0156 42.5 54.0781 42.1328 54.0938 41.8203C54.125 41.5078 54.1406 41.1094 54.1406 40.625V40.4375C54.125 39.3125 54.0781 37.1406 54 33.9219C53.9375 30.7031 53.9062 28.1875 53.9062 26.375V18.4062C53.9062 17.9531 54.2344 17.6875 54.8906 17.6094C55.3906 17.6094 56.1406 17.6172 57.1406 17.6328C58.1406 17.6484 58.8906 17.6562 59.3906 17.6562C60.1406 17.6562 61.25 17.6484 62.7188 17.6328C64.1875 17.6172 65.2969 17.6094 66.0469 17.6094H68.25C68.6094 17.6094 68.8594 17.8281 69 18.2656C68.9688 18.5469 68.9531 18.9297 68.9531 19.4141C68.9688 19.8984 68.9688 20.2812 68.9531 20.5625V21.7344C68.7969 26.5312 68.7188 30.8125 68.7188 34.5781V41.9375C68.7188 43.3125 68.5312 44.5859 68.1562 45.7578C67.7812 46.9297 67.2812 47.9297 66.6562 48.7578C66.0312 49.5859 65.2812 50.3359 64.4062 51.0078C63.5469 51.6641 62.6562 52.1953 61.7344 52.6016C60.8125 53.0078 59.8359 53.3438 58.8047 53.6094C57.7891 53.875 56.8281 54.0547 55.9219 54.1484C55.0312 54.2578 54.1562 54.3125 53.2969 54.3125ZM91.3125 29.8438C90.8906 29.8438 90.5469 29.7812 90.2812 29.6562C90.0156 29.5312 89.8047 29.375 89.6484 29.1875C89.4922 29 89.3125 28.8125 89.1094 28.625C88.9219 28.4375 88.6172 28.2812 88.1953 28.1562C87.7734 28.0312 87.2344 27.9688 86.5781 27.9688C86.375 27.9688 86.125 27.9922 85.8281 28.0391C85.5469 28.0703 85.2344 28.1719 84.8906 28.3438C84.5469 28.5156 84.375 28.7344 84.375 29C84.375 29.2969 84.5156 29.5547 84.7969 29.7734C85.0938 29.9766 85.4219 30.125 85.7812 30.2188C86.1562 30.2969 86.5703 30.3984 87.0234 30.5234C87.4922 30.6328 87.8203 30.7344 88.0078 30.8281L91.4531 31.6719C92.4688 31.9531 93.3828 32.25 94.1953 32.5625C95.0078 32.875 95.8672 33.3047 96.7734 33.8516C97.6953 34.3828 98.4609 34.9766 99.0703 35.6328C99.6797 36.2891 100.188 37.1172 100.594 38.1172C101 39.1016 101.203 40.1875 101.203 41.375C101.203 42.8125 101.016 44.0938 100.641 45.2188V45.1719C100.312 46.1719 99.8516 47.0703 99.2578 47.8672C98.6641 48.6484 97.9609 49.3047 97.1484 49.8359C96.3359 50.3516 95.5156 50.7891 94.6875 51.1484C93.8594 51.4922 92.8984 51.7734 91.8047 51.9922C90.7266 52.1953 89.7578 52.3516 88.8984 52.4609C88.0547 52.5547 87.0781 52.6406 85.9688 52.7188C81.0469 52.4688 77.75 51.6875 76.0781 50.375V50.0938C74.6562 49.0312 73.6016 47.875 72.9141 46.625C72.2422 45.375 71.8438 43.9688 71.7188 42.4062C71.7188 42.0312 71.8906 41.8438 72.2344 41.8438C72.3281 41.8438 72.4688 41.8516 72.6562 41.8672C72.8438 41.8828 72.9844 41.8906 73.0781 41.8906H75.4688C75.6875 41.8594 76 41.8438 76.4062 41.8438H77.0156C77.1406 41.8438 77.25 41.8594 77.3438 41.8906C78.25 41.8594 79.7969 41.8438 81.9844 41.8438H83.0625C83.375 41.8438 83.6172 41.9375 83.7891 42.125C83.9609 42.3125 84.0938 42.5469 84.1875 42.8281C84.2969 43.0938 84.4141 43.3672 84.5391 43.6484C84.6797 43.9141 84.9219 44.1406 85.2656 44.3281C85.6094 44.5156 86.0625 44.6094 86.625 44.6094C87.2344 44.6094 87.7812 44.4531 88.2656 44.1406C88.7656 43.8125 89.0156 43.3438 89.0156 42.7344C89.0156 42.4531 88.8828 42.1875 88.6172 41.9375C88.3516 41.6875 87.9531 41.4609 87.4219 41.2578C86.8906 41.0547 86.4141 40.8906 85.9922 40.7656C85.5859 40.6406 85.0312 40.4922 84.3281 40.3203C83.625 40.1484 83.1719 40.0312 82.9688 39.9688H81.5625C78.1719 38.9688 75.7266 37.7031 74.2266 36.1719C72.7422 34.625 72 32.6719 72 30.3125C72 28.75 72.2891 27.3438 72.8672 26.0938C73.4609 24.8438 74.2344 23.8203 75.1875 23.0234C76.1562 22.2266 77.2891 21.5625 78.5859 21.0312C79.8828 20.4844 81.2031 20.1016 82.5469 19.8828C83.8906 19.6484 85.2812 19.5312 86.7188 19.5312C89.2656 19.5312 91.625 19.9609 93.7969 20.8203C95.9844 21.6641 97.6406 22.7656 98.7656 24.125C99.1719 24.5312 99.5 25.0469 99.75 25.6719C100 26.2969 100.156 26.7969 100.219 27.1719C100.297 27.5312 100.391 28.1406 100.5 29L99.8438 29.9375H95.8594C95.4219 29.9375 94.6953 29.9219 93.6797 29.8906C92.6641 29.8594 91.875 29.8438 91.3125 29.8438ZM102.328 36.0312L102.281 35.5156C102.578 32.9688 102.859 31.1953 103.125 30.1953C103.734 27.8516 104.828 25.8906 106.406 24.3125L106.969 23.75C107.719 22.875 108.859 22.125 110.391 21.5H111.281C112.812 20.8594 115.328 20.2656 118.828 19.7188C119.703 19.7188 120.617 19.7891 121.57 19.9297C122.539 20.0547 123.609 20.2734 124.781 20.5859C125.953 20.8828 127.078 21.3672 128.156 22.0391C129.25 22.6953 130.156 23.4844 130.875 24.4062V25.0625C133.438 28.2656 134.719 31.8594 134.719 35.8438C134.719 40.3281 133.688 43.9844 131.625 46.8125L130.688 47.9844C129.969 48.875 129.07 49.6406 127.992 50.2812C126.93 50.9219 125.797 51.4141 124.594 51.7578C123.391 52.0859 122.234 52.3203 121.125 52.4609C120.031 52.6016 118.938 52.6719 117.844 52.6719C116.234 52.6719 114.695 52.4844 113.227 52.1094C111.773 51.7188 110.406 51.1172 109.125 50.3047C107.859 49.4922 106.742 48.4922 105.773 47.3047C104.805 46.1172 104.016 44.6875 103.406 43.0156C102.812 41.3281 102.453 39.4688 102.328 37.4375V36.0312ZM115.219 36.2188C115.219 41.7188 116.266 44.4688 118.359 44.4688C118.938 44.4688 119.438 44.3594 119.859 44.1406C120.297 43.9219 120.648 43.5859 120.914 43.1328C121.18 42.6797 121.398 42.2188 121.57 41.75C121.742 41.2812 121.859 40.6953 121.922 39.9922C122 39.2891 122.047 38.6719 122.062 38.1406C122.094 37.6094 122.109 36.9688 122.109 36.2188V35.375C122.109 34.5625 122.062 33.7812 121.969 33.0312C121.875 32.2812 121.711 31.5312 121.477 30.7812C121.258 30.0156 120.914 29.4062 120.445 28.9531C119.977 28.4844 119.406 28.25 118.734 28.25C116.391 28.25 115.219 30.5625 115.219 35.1875V36.2188ZM169.125 20.75C169.312 20.8125 169.453 21.0859 169.547 21.5703C169.656 22.0391 169.719 22.6328 169.734 23.3516C169.75 24.0703 169.75 24.7578 169.734 25.4141C169.719 26.0703 169.695 26.7422 169.664 27.4297C169.648 28.1172 169.641 28.5469 169.641 28.7188C169.609 29.3438 169.594 30.2188 169.594 31.3438V33.8281C169.594 34.9219 169.609 36.4219 169.641 38.3281C169.672 40.2344 169.688 41.6406 169.688 42.5469V51.0781C169.625 51.6094 169.188 51.875 168.375 51.875H155.25C154.969 51.8125 154.609 51.1562 154.172 49.9062C153.875 49.0781 153.375 47.7188 152.672 45.8281C151.984 43.9375 151.391 42.2812 150.891 40.8594C150.391 39.4219 149.938 38.0312 149.531 36.6875V36.5469V36.6875C149.484 37.7188 149.438 39.2578 149.391 41.3047C149.344 43.3359 149.297 44.8594 149.25 45.875V50.6562C149.25 51.125 149.195 51.4531 149.086 51.6406C148.977 51.8125 148.688 51.9531 148.219 52.0625H138.562L137.531 51.0312C137.609 48.4375 137.672 44.375 137.719 38.8438C137.766 33.3125 137.828 29.2188 137.906 26.5625V21.5C138.062 20.9375 138.25 20.6562 138.469 20.6562V20.75C139.531 20.75 141.195 20.7188 143.461 20.6562C145.742 20.5938 147.453 20.5625 148.594 20.5625H152.531C152.547 20.5625 152.57 20.5703 152.602 20.5859C152.883 20.6953 153.039 20.8203 153.07 20.9609L153.094 21.125C153.656 22.6406 154.227 24.2109 154.805 25.8359C155.383 27.4609 156.07 29.4297 156.867 31.7422C157.664 34.0391 158.219 35.625 158.531 36.5V33.0312C158.844 27.5312 159 23.625 159 21.3125C159 21.0625 159.172 20.9062 159.516 20.8438C159.859 20.7812 160.391 20.75 161.109 20.75H169.125ZM205.406 20.75C205.594 20.8125 205.734 21.0859 205.828 21.5703C205.938 22.0391 206 22.6328 206.016 23.3516C206.031 24.0703 206.031 24.7578 206.016 25.4141C206 26.0703 205.977 26.7422 205.945 27.4297C205.93 28.1172 205.922 28.5469 205.922 28.7188C205.891 29.3438 205.875 30.2188 205.875 31.3438V33.8281C205.875 34.9219 205.891 36.4219 205.922 38.3281C205.953 40.2344 205.969 41.6406 205.969 42.5469V51.0781C205.906 51.6094 205.469 51.875 204.656 51.875H191.531C191.25 51.8125 190.891 51.1562 190.453 49.9062C190.156 49.0781 189.656 47.7188 188.953 45.8281C188.266 43.9375 187.672 42.2812 187.172 40.8594C186.672 39.4219 186.219 38.0312 185.812 36.6875V36.5469V36.6875C185.766 37.7188 185.719 39.2578 185.672 41.3047C185.625 43.3359 185.578 44.8594 185.531 45.875V50.6562C185.531 51.125 185.477 51.4531 185.367 51.6406C185.258 51.8125 184.969 51.9531 184.5 52.0625H174.844L173.812 51.0312C173.891 48.4375 173.953 44.375 174 38.8438C174.047 33.3125 174.109 29.2188 174.188 26.5625V21.5C174.344 20.9375 174.531 20.6562 174.75 20.6562V20.75C175.812 20.75 177.477 20.7188 179.742 20.6562C182.023 20.5938 183.734 20.5625 184.875 20.5625H188.812C188.828 20.5625 188.852 20.5703 188.883 20.5859C189.164 20.6953 189.32 20.8203 189.352 20.9609L189.375 21.125C189.938 22.6406 190.508 24.2109 191.086 25.8359C191.664 27.4609 192.352 29.4297 193.148 31.7422C193.945 34.0391 194.5 35.625 194.812 36.5V33.0312C195.125 27.5312 195.281 23.625 195.281 21.3125C195.281 21.0625 195.453 20.9062 195.797 20.8438C196.141 20.7812 196.672 20.75 197.391 20.75H205.406Z" fill="#4F89DF"/>
</svg>
