<svg width="250" height="56" viewBox="0 0 250 56" fill="none" xmlns="http://www.w3.org/2000/svg">
<path d="M138.006 36.392C138.55 36.936 138.822 37.592 138.822 38.36C138.822 39.128 138.518 39.816 137.91 40.424C137.334 41 136.662 41.288 135.894 41.288C135.126 41.288 134.486 41.032 133.974 40.52C133.462 39.976 133.206 39.304 133.206 38.504C133.206 37.672 133.478 36.984 134.022 36.44C134.598 35.864 135.27 35.576 136.038 35.576C136.806 35.576 137.462 35.848 138.006 36.392ZM156.367 35.48C156.367 37.208 155.551 38.76 153.919 40.136C152.319 41.48 150.575 42.44 148.687 43.016C146.831 43.624 145.199 43.928 143.791 43.928C143.631 43.928 143.407 43.736 143.119 43.352C142.319 42.296 141.919 41.064 141.919 39.656V39.32C144.415 39.32 146.319 38.888 147.631 38.024C148.943 37.16 149.599 36.264 149.599 35.336C149.599 34.728 149.199 34.088 148.399 33.416C147.599 32.744 146.719 32.152 145.759 31.64C144.799 31.128 143.919 30.456 143.119 29.624C142.319 28.76 141.919 27.864 141.919 26.936C141.919 24.984 143.135 23.192 145.567 21.56C147.999 19.928 150.591 19.112 153.343 19.112C153.663 19.112 154.079 19.56 154.591 20.456C155.103 21.32 155.375 22.216 155.407 23.144C154.767 23.144 153.807 23.336 152.527 23.72C149.999 24.52 148.735 25.512 148.735 26.696C148.735 27.528 149.983 28.664 152.479 30.104C153.439 30.648 154.319 31.4 155.119 32.36C155.919 33.32 156.335 34.36 156.367 35.48ZM165.616 9.56C165.552 10.296 165.472 12.312 165.376 15.608C167.776 15.608 168.976 15.656 168.976 15.752C168.976 16.84 168.816 17.816 168.496 18.68C168.176 19.512 167.872 19.928 167.584 19.928H165.328C165.264 24.664 165.232 28.52 165.232 31.496C165.232 34.44 165.28 36.408 165.376 37.4C165.568 39.064 166.224 40.424 167.344 41.48C167.344 41.832 166.72 42.344 165.472 43.016C164.256 43.688 163.104 44.024 162.016 44.024C161.92 44.024 161.728 43.864 161.44 43.544C161.184 43.224 160.896 42.696 160.576 41.96C160.288 41.224 160.096 40.504 160 39.8C159.936 39.096 159.904 36.584 159.904 32.264C159.904 27.944 159.952 23.864 160.048 20.024L157.36 20.072C157.2 19.912 157.12 19.224 157.12 18.008C157.12 16.76 157.264 16.008 157.552 15.752C158.256 15.72 159.104 15.688 160.096 15.656C160.096 13.8 160.048 12.6 159.952 12.056C159.856 11.512 159.808 11.192 159.808 11.096C159.808 10.776 160.352 10.408 161.44 9.992C162.56 9.576 163.536 9.368 164.368 9.368C165.2 9.368 165.616 9.432 165.616 9.56ZM190.068 31.016C190.068 34.056 189.14 36.696 187.284 38.936C185.46 41.144 182.964 42.248 179.796 42.248C176.66 42.248 174.196 41.272 172.404 39.32C170.612 37.368 169.716 34.84 169.716 31.736C169.716 28.6 170.82 25.832 173.028 23.432C175.268 21 178.276 19.784 182.052 19.784C183.588 19.848 184.42 19.944 184.548 20.072C184.676 20.2 184.74 20.504 184.74 20.984C184.74 21.464 184.692 21.992 184.596 22.568C185.076 22.568 185.684 22.856 186.42 23.432C187.188 23.976 187.812 24.536 188.292 25.112C188.772 25.688 189.188 26.504 189.54 27.56C189.892 28.584 190.068 29.736 190.068 31.016ZM183.06 27.656C182.324 27.176 181.604 26.936 180.9 26.936H180.516C180.452 26.808 180.42 26.536 180.42 26.12C180.42 25.704 180.468 25.304 180.564 24.92C179.252 24.92 178.02 25.512 176.868 26.696C175.748 27.88 175.188 29.528 175.188 31.64C175.188 34.136 175.988 35.864 177.588 36.824C178.196 37.208 179.028 37.4 180.084 37.4C181.172 37.4 182.18 36.904 183.108 35.912C184.068 34.92 184.548 33.448 184.548 31.496C184.548 29.544 184.052 28.264 183.06 27.656ZM194.022 34.52L193.926 23.624C193.926 21.736 193.99 20.728 194.118 20.6C194.47 20.248 195.078 19.944 195.942 19.688C196.806 19.4 197.606 19.256 198.342 19.256C199.11 19.256 199.494 19.336 199.494 19.496C199.398 20.36 199.35 21.352 199.35 22.472C199.35 23.56 199.382 24.104 199.446 24.104C199.51 24.104 199.574 24.072 199.638 24.008C199.702 23.912 199.798 23.784 199.926 23.624C200.086 23.432 200.39 23.112 200.838 22.664C201.318 22.216 201.83 21.832 202.374 21.512C203.75 20.616 205.222 20.168 206.79 20.168C207.046 20.584 207.174 21.224 207.174 22.088C207.174 23.912 206.95 25.208 206.502 25.976L206.31 26.36L205.686 26.264C203.382 26.264 201.574 27.208 200.262 29.096C199.75 29.864 199.494 30.44 199.494 30.824V35.048C199.494 38.888 199.446 40.856 199.35 40.952C198.454 41.816 196.694 42.248 194.07 42.248C193.814 42.248 193.686 42.2 193.686 42.104C193.91 40.856 194.022 38.328 194.022 34.52ZM220.67 25.736C220.67 24.808 220.174 24.344 219.182 24.344C217.87 24.344 216.718 25.016 215.726 26.36C214.734 27.704 214.238 29.32 214.238 31.208C214.238 31.656 214.302 31.88 214.43 31.88C215.582 31.848 216.91 31.192 218.414 29.912C219.918 28.6 220.67 27.208 220.67 25.736ZM224.846 41C223.758 41.736 221.63 42.104 218.462 42.104C215.294 42.104 212.862 41.16 211.166 39.272C209.47 37.384 208.622 34.872 208.622 31.736C208.622 28.568 209.63 25.832 211.646 23.528C213.694 21.192 216.558 20.024 220.238 20.024C221.742 20.024 223.118 20.424 224.366 21.224C225.646 22.024 226.286 23.432 226.286 25.448C226.286 27.432 225.406 29.4 223.646 31.352C221.918 33.304 219.55 34.792 216.542 35.816C216.542 36.2 216.926 36.52 217.694 36.776C218.494 37 219.278 37.112 220.046 37.112C222.478 37.112 224.398 36.68 225.806 35.816C225.838 35.784 225.886 35.768 225.95 35.768C226.014 35.768 226.046 36.072 226.046 36.68C226.046 38.536 225.646 39.976 224.846 41ZM245.825 33.176L245.873 40.328C245.873 41.704 245.841 42.52 245.777 42.776C245.585 43.16 244.689 43.816 243.089 44.744C241.521 45.704 240.497 46.184 240.017 46.184C238.993 45.992 238.177 45.528 237.569 44.792C239.841 42.968 241.073 41.64 241.265 40.808C241.329 37.64 241.361 34.872 241.361 32.504C241.361 30.104 241.329 28.696 241.265 28.28C243.153 26.776 244.097 25.848 244.097 25.496C244.097 25.176 243.393 24.424 241.985 23.24L241.265 22.664C241.329 22.28 241.361 20.936 241.361 18.632L241.265 10.136C241.169 9.784 240.817 9.288 240.209 8.648C239.601 7.976 239.009 7.4 238.433 6.92L237.569 6.2C238.081 5.56 238.897 5.08 240.017 4.76C240.497 4.76 241.521 5.24 243.089 6.2C244.689 7.128 245.553 7.752 245.681 8.072C245.809 8.36 245.873 9.208 245.873 10.616L245.825 17.768C245.825 20.008 245.873 21.592 245.969 22.52C247.793 24.184 248.705 25.176 248.705 25.496C248.705 25.624 248.481 25.944 248.033 26.456C247.585 26.936 247.137 27.384 246.689 27.8L245.969 28.424C245.873 29.352 245.825 30.936 245.825 33.176Z" fill="#22202B"/>
<path d="M3.12 17.384L3.072 10.424C3.072 9.048 3.104 8.312 3.168 8.216C3.36 7.8 4.24 7.128 5.808 6.2C7.408 5.24 8.448 4.76 8.928 4.76C9.952 4.984 10.768 5.464 11.376 6.2C9.072 8.024 7.84 9.336 7.68 10.136C7.584 13.336 7.536 16.088 7.536 18.392C7.536 20.664 7.584 22.088 7.68 22.664C5.76 24.168 4.8 25.112 4.8 25.496C4.8 25.816 5.52 26.552 6.96 27.704L7.68 28.28C7.584 28.888 7.536 30.248 7.536 32.36L7.68 40.808C7.808 41.512 8.752 42.6 10.512 44.072L11.376 44.792C10.832 45.464 10.016 45.928 8.928 46.184C8.448 46.184 7.408 45.704 5.808 44.744C4.24 43.816 3.36 43.16 3.168 42.776C3.104 42.648 3.072 41.752 3.072 40.088L3.12 33.656C3.12 31.064 3.056 29.32 2.928 28.424C1.136 26.792 0.24 25.816 0.24 25.496C0.24 25.24 0.912 24.456 2.256 23.144L2.928 22.52C3.056 21.656 3.12 19.944 3.12 17.384ZM43.0688 13.496L43.1648 22.664C43.1648 29.096 43.0048 32.968 42.6848 34.28C42.0448 36.872 40.7968 38.84 38.9408 40.184C37.0848 41.496 34.8928 42.152 32.3648 42.152C31.2768 42.152 30.2848 42.056 29.3888 41.864C28.5248 41.672 27.9328 41.48 27.6128 41.288L27.1328 40.952C26.0128 41.816 24.6848 42.248 23.1488 42.248C22.8288 42.248 22.6528 42.232 22.6208 42.2L22.4288 39.752C22.4288 35.496 22.6048 32.424 22.9568 30.536L23.1488 29.48C23.3408 29.224 23.9328 28.952 24.9248 28.664C25.9168 28.344 26.7968 28.184 27.5648 28.184C27.5648 31.704 27.9808 34.072 28.8128 35.288C29.6448 36.472 30.9088 37.064 32.6048 37.064C35.6448 37.064 37.1648 34.232 37.1648 28.568L37.2128 21.032C37.2128 17.128 37.0368 15 36.6848 14.648C36.0448 14.008 34.7168 13.688 32.7008 13.688H32.5088C32.3808 13.624 32.3168 13.304 32.3168 12.728C32.3168 12.152 32.3968 11.56 32.5568 10.952C32.7168 10.344 32.8448 9.992 32.9408 9.896C33.0688 9.768 33.5808 9.608 34.4768 9.416C37.1648 8.904 40.2208 8.648 43.6448 8.648C44.0928 8.648 44.3168 8.68 44.3168 8.744C44.3168 9.512 44.1088 10.488 43.6928 11.672C43.2768 12.856 43.0688 13.464 43.0688 13.496ZM61.638 35.48C61.638 37.208 60.822 38.76 59.19 40.136C57.59 41.48 55.846 42.44 53.958 43.016C52.102 43.624 50.47 43.928 49.062 43.928C48.902 43.928 48.678 43.736 48.39 43.352C47.59 42.296 47.19 41.064 47.19 39.656V39.32C49.686 39.32 51.59 38.888 52.902 38.024C54.214 37.16 54.87 36.264 54.87 35.336C54.87 34.728 54.47 34.088 53.67 33.416C52.87 32.744 51.99 32.152 51.03 31.64C50.07 31.128 49.19 30.456 48.39 29.624C47.59 28.76 47.19 27.864 47.19 26.936C47.19 24.984 48.406 23.192 50.838 21.56C53.27 19.928 55.862 19.112 58.614 19.112C58.934 19.112 59.35 19.56 59.862 20.456C60.374 21.32 60.646 22.216 60.678 23.144C60.038 23.144 59.078 23.336 57.798 23.72C55.27 24.52 54.006 25.512 54.006 26.696C54.006 27.528 55.254 28.664 57.75 30.104C58.71 30.648 59.59 31.4 60.39 32.36C61.19 33.32 61.606 34.36 61.638 35.48ZM84.6514 31.016C84.6514 34.056 83.7234 36.696 81.8674 38.936C80.0434 41.144 77.5474 42.248 74.3794 42.248C71.2434 42.248 68.7794 41.272 66.9874 39.32C65.1954 37.368 64.2994 34.84 64.2994 31.736C64.2994 28.6 65.4034 25.832 67.6114 23.432C69.8514 21 72.8594 19.784 76.6354 19.784C78.1714 19.848 79.0034 19.944 79.1314 20.072C79.2594 20.2 79.3234 20.504 79.3234 20.984C79.3234 21.464 79.2754 21.992 79.1794 22.568C79.6594 22.568 80.2674 22.856 81.0034 23.432C81.7714 23.976 82.3954 24.536 82.8754 25.112C83.3554 25.688 83.7714 26.504 84.1234 27.56C84.4754 28.584 84.6514 29.736 84.6514 31.016ZM77.6434 27.656C76.9074 27.176 76.1874 26.936 75.4834 26.936H75.0994C75.0354 26.808 75.0034 26.536 75.0034 26.12C75.0034 25.704 75.0514 25.304 75.1474 24.92C73.8354 24.92 72.6034 25.512 71.4514 26.696C70.3314 27.88 69.7714 29.528 69.7714 31.64C69.7714 34.136 70.5714 35.864 72.1714 36.824C72.7794 37.208 73.6114 37.4 74.6674 37.4C75.7554 37.4 76.7634 36.904 77.6914 35.912C78.6514 34.92 79.1314 33.448 79.1314 31.496C79.1314 29.544 78.6354 28.264 77.6434 27.656ZM94.3174 30.2L94.3654 31.976V35.624C94.3654 39.048 94.3014 40.824 94.1734 40.952C93.7574 41.368 93.0374 41.688 92.0134 41.912C90.9894 42.136 90.1414 42.248 89.4694 42.248C88.8294 42.248 88.5094 42.2 88.5094 42.104C88.7334 40.664 88.8454 38.296 88.8454 35L88.7014 24.2C88.7014 22.216 88.7814 21.144 88.9414 20.984C89.2934 20.632 89.9014 20.328 90.7654 20.072C91.6294 19.784 92.4294 19.64 93.1654 19.64C93.9334 19.64 94.3174 19.72 94.3174 19.88C94.2214 20.648 94.1734 21.416 94.1734 22.184C94.1734 22.952 94.2214 23.336 94.3174 23.336L94.4614 23.24C94.6214 23.016 94.8614 22.744 95.1814 22.424C95.5014 22.072 96.1734 21.624 97.1974 21.08C98.2534 20.504 99.2454 20.216 100.173 20.216C101.133 20.216 101.933 20.392 102.573 20.744C103.245 21.064 103.789 21.464 104.205 21.944C104.621 22.424 104.973 23.112 105.261 24.008C105.581 24.904 105.821 25.736 105.981 26.504C106.141 27.272 106.269 28.296 106.365 29.576C106.461 31.336 106.509 33.576 106.509 36.296L106.365 41.912C106.365 42.136 105.837 42.344 104.781 42.536C103.725 42.76 102.877 42.872 102.237 42.872L100.653 42.632C100.973 39.752 101.133 36.968 101.133 34.28C101.133 31.56 100.957 29.528 100.605 28.184C100.253 26.808 99.5494 26.12 98.4934 26.12C97.4374 26.12 96.5734 26.408 95.9014 26.984C95.2614 27.56 94.8454 28.136 94.6534 28.712L94.3174 29.528V30.2ZM116.63 30.2L116.678 31.976V35.624C116.678 39.048 116.614 40.824 116.486 40.952C116.07 41.368 115.35 41.688 114.326 41.912C113.302 42.136 112.454 42.248 111.782 42.248C111.142 42.248 110.822 42.2 110.822 42.104C111.046 40.664 111.158 38.296 111.158 35L111.014 24.2C111.014 22.216 111.094 21.144 111.254 20.984C111.606 20.632 112.214 20.328 113.078 20.072C113.942 19.784 114.742 19.64 115.478 19.64C116.246 19.64 116.63 19.72 116.63 19.88C116.534 20.648 116.486 21.416 116.486 22.184C116.486 22.952 116.534 23.336 116.63 23.336L116.774 23.24C116.934 23.016 117.174 22.744 117.494 22.424C117.814 22.072 118.486 21.624 119.51 21.08C120.566 20.504 121.558 20.216 122.486 20.216C123.446 20.216 124.246 20.392 124.886 20.744C125.558 21.064 126.102 21.464 126.518 21.944C126.934 22.424 127.286 23.112 127.574 24.008C127.894 24.904 128.134 25.736 128.294 26.504C128.454 27.272 128.582 28.296 128.678 29.576C128.774 31.336 128.822 33.576 128.822 36.296L128.678 41.912C128.678 42.136 128.15 42.344 127.094 42.536C126.038 42.76 125.19 42.872 124.55 42.872L122.966 42.632C123.286 39.752 123.446 36.968 123.446 34.28C123.446 31.56 123.27 29.528 122.918 28.184C122.566 26.808 121.862 26.12 120.806 26.12C119.75 26.12 118.886 26.408 118.214 26.984C117.574 27.56 117.158 28.136 116.966 28.712L116.63 29.528V30.2Z" fill="#4F89DF"/>
</svg>
