<svg width="60" height="60" viewBox="0 0 60 60" fill="none" xmlns="http://www.w3.org/2000/svg">
<path d="M12.16 44.57C10.9947 44.57 9.956 44.3547 9.044 43.924C8.15733 43.468 7.42267 42.8853 6.84 42.176L6.156 44.228H1.178V32.258H6.536C6.536 34.0567 6.70067 35.374 7.03 36.21C7.35933 37.046 8.03067 37.464 9.044 37.464C9.90533 37.464 10.5893 37.0587 11.096 36.248C11.628 35.4373 11.894 34.4873 11.894 33.398V21.01H8.322V14.436H24.358V21.01H21.394V35.184C21.394 38.0467 20.5707 40.3267 18.924 42.024C17.2773 43.7213 15.0227 44.57 12.16 44.57ZM31.0068 44.532C29.5628 44.532 28.3341 44.1013 27.3208 43.24C26.3581 42.4293 25.8768 41.302 25.8768 39.858C25.8768 38.4393 26.3581 37.3373 27.3208 36.552C28.2835 35.716 29.5121 35.298 31.0068 35.298C32.6028 35.298 33.8948 35.716 34.8828 36.552C35.8708 37.388 36.3648 38.49 36.3648 39.858C36.3648 41.2513 35.8581 42.3787 34.8448 43.24C33.8315 44.076 32.5648 44.494 31.0448 44.494L31.0068 44.532ZM48.7825 44.342C46.2492 44.342 44.0072 43.6707 42.0565 42.328L41.4485 44H37.9905V36.666H42.1325C42.2845 37.6033 42.7152 38.452 43.4245 39.212C44.1592 39.9467 44.9952 40.314 45.9325 40.314C46.2872 40.314 46.5912 40.2127 46.8445 40.01C47.1232 39.8073 47.2625 39.478 47.2625 39.022C47.2625 38.566 46.9965 38.1607 46.4645 37.806C45.9578 37.426 45.1725 36.9827 44.1085 36.476C42.8418 35.8427 41.8032 35.2727 40.9925 34.766C40.1818 34.234 39.4725 33.55 38.8645 32.714C38.2818 31.8527 37.9905 30.8267 37.9905 29.636C37.9905 28.3947 38.3832 27.3307 39.1685 26.444C39.9792 25.5573 41.0432 24.886 42.3605 24.43C43.6778 23.974 45.1092 23.746 46.6545 23.746C48.6812 23.746 50.5558 24.278 52.2785 25.342L52.7345 24.126H55.8125V30.054H52.2405C51.9365 29.2433 51.4932 28.61 50.9105 28.154C50.3278 27.698 49.6438 27.47 48.8585 27.47C48.4278 27.47 48.0858 27.5333 47.8325 27.66C47.6045 27.7867 47.4905 28.0147 47.4905 28.344C47.5158 28.7493 47.7565 29.0913 48.2125 29.37C48.6685 29.6487 49.4285 30.016 50.4925 30.472C51.8098 31.0293 52.8992 31.5613 53.7605 32.068C54.6218 32.5747 55.3692 33.2967 56.0025 34.234C56.6612 35.146 56.9905 36.286 56.9905 37.654C56.9905 39.098 56.6105 40.3267 55.8505 41.34C55.0905 42.328 54.0898 43.0753 52.8485 43.582C51.6072 44.0887 50.2518 44.342 48.7825 44.342Z" fill="#22202B"/>
<path d="M12.16 44.57C10.9947 44.57 9.956 44.3547 9.044 43.924C8.15733 43.468 7.42267 42.8853 6.84 42.176L6.156 44.228H1.178V32.258H6.536C6.536 34.0567 6.70067 35.374 7.03 36.21C7.35933 37.046 8.03067 37.464 9.044 37.464C9.90533 37.464 10.5893 37.0587 11.096 36.248C11.628 35.4373 11.894 34.4873 11.894 33.398V21.01H8.322V14.436H24.358V21.01H21.394V35.184C21.394 38.0467 20.5707 40.3267 18.924 42.024C17.2773 43.7213 15.0227 44.57 12.16 44.57Z" fill="#4F89DF"/>
</svg>
